<?xml version="1.0" encoding="iso-8859-1"?>
<!-- Generator: Adobe Illustrator 21.1.0, SVG Export Plug-In . SVG Version: 6.00 Build 0)  -->
<svg version="1.1" id="Layer_1" xmlns="http://www.w3.org/2000/svg" xmlns:xlink="http://www.w3.org/1999/xlink" x="0px" y="0px"
	 viewBox="0 0 48 48" style="enable-background:new 0 0 48 48;" xml:space="preserve">
<linearGradient id="SVGID_1_" gradientUnits="userSpaceOnUse" x1="24" y1="9.3333" x2="24" y2="43.1667">
	<stop  offset="0" style="stop-color:#4C4C4C"/>
	<stop  offset="0.289" style="stop-color:#464646"/>
	<stop  offset="0.998" style="stop-color:#3B3B3B"/>
</linearGradient>
<path style="fill:url(#SVGID_1_);" d="M39,44H9c-1.105,0-2-0.895-2-2V6c0-1.105,0.895-2,2-2h30c1.105,0,2,0.895,2,2v36
	C41,43.105,40.105,44,39,44z"/>
<g>
	<g style="opacity:0.05;">
		<path d="M29.172,6c0.53,0,1.039,0.211,1.414,0.586l7.828,7.828C38.789,14.789,39,15.298,39,15.828V41c0,0.552-0.448,1-1,1H10
			c-0.552,0-1-0.448-1-1V7c0-0.552,0.448-1,1-1H29.172 M29.172,5H10C8.897,5,8,5.897,8,7v34c0,1.103,0.897,2,2,2h28
			c1.103,0,2-0.897,2-2V15.828c0-0.801-0.312-1.555-0.879-2.121l-7.828-7.828C30.726,5.312,29.973,5,29.172,5L29.172,5z"/>
	</g>
	<g style="opacity:0.07;">
		<path d="M29.172,6c0.53,0,1.039,0.211,1.414,0.586l7.828,7.828C38.789,14.789,39,15.298,39,15.828V41c0,0.552-0.448,1-1,1H10
			c-0.552,0-1-0.448-1-1V7c0-0.552,0.448-1,1-1H29.172 M29.172,5.5H10C9.173,5.5,8.5,6.173,8.5,7v34c0,0.827,0.673,1.5,1.5,1.5h28
			c0.827,0,1.5-0.673,1.5-1.5V15.828c0-0.668-0.26-1.296-0.732-1.768l-7.828-7.828C30.467,5.76,29.839,5.5,29.172,5.5L29.172,5.5z"
			/>
	</g>
	<linearGradient id="SVGID_2_" gradientUnits="userSpaceOnUse" x1="24" y1="18.3333" x2="24" y2="61.0029">
		<stop  offset="0" style="stop-color:#F9F9F9"/>
		<stop  offset="0.2601" style="stop-color:#F0F1F2"/>
		<stop  offset="0.6784" style="stop-color:#D9DCDF"/>
		<stop  offset="1" style="stop-color:#C2C8CC"/>
	</linearGradient>
	<path style="fill:url(#SVGID_2_);" d="M10,6C9.448,6,9,6.448,9,7v34c0,0.552,0.448,1,1,1h28c0.552,0,1-0.448,1-1V15.828
		c0-0.53-0.211-1.039-0.586-1.414l-7.828-7.828C30.211,6.211,29.702,6,29.172,6H10z"/>
</g>
</svg>